<?xml version="1.0" encoding="UTF-8"?><svg id="a" xmlns="http://www.w3.org/2000/svg" width="166.629mm" height="24.326mm" viewBox="0 0 472.334 68.954"><defs><style>.b{fill:#cd1b2f;}.c,.d{fill:#004e87;}.c,.e{fill-rule:evenodd;}</style></defs><path class="e" d="M87.305,32.45c-.652,6.118,3.231,20.033-7.804,17.034v-2.471c2.705.201,4.828.464,4.639-2.803,0,0,0-11.759,0-11.759h3.165Z"/><path class="e" d="M97.013,43.067c-4.261-.05-6.711,1.406-4.971,3.975,2.683,1.936,5.629-1.117,4.971-3.975ZM100.158,49.484h-2.715c-.234-.762-.381-1.612-.43-2.54-6.787,9.408-14.826-6.892,0-5.41,1.092-3.432-5.242-3.948-5.626-.947l-2.432-.362c.47-4.238,8.861-5.101,10.587-1.28.673,2.6-.243,7.831.616,10.539Z"/><path class="e" d="M106.223,44.317c-.246,2.574,3.274,4.536,4.629,1.992,1.013-2.029,1.17-7.18-1.904-7.355-2.631.033-2.883,3.264-2.725,5.362ZM106.223,53.743h-2.901v-16.858h2.725v2.198c2.922-5.274,9.145-1.214,8.467,4.015.714,4.85-5.159,9.516-8.291,4.629v6.017Z"/><path class="e" d="M123.774,43.067c-4.251-.05-6.713,1.406-4.971,3.975,2.689,1.933,5.632-1.11,4.971-3.975ZM126.929,49.484h-2.715c-.244-.762-.391-1.612-.44-2.54-6.78,9.409-14.813-6.888,0-5.41,1.094-3.431-5.233-3.949-5.626-.947l-2.422-.362c.454-4.243,8.863-5.097,10.578-1.28.683,2.598-.257,7.834.625,10.539Z"/><path class="e" d="M139.372,49.484h-2.852c-.216-1.402.548-8.751-.566-9.747-5.387-3.173-4.059,7.01-4.181,9.747h-2.852v-12.6h2.608v2.921c1.254-3.329,4.315-4.087,6.661-2.139,2.059,1.566.893,9.445,1.182,11.818Z"/><path class="e" d="M145.915,45.382l2.989-.635c.688,5.202,12.43,1.261,5.411-1.954-1.406-.413-4.726-1.052-5.733-1.834-7.087-6.882,7.785-12.954,10.422-5.089l-2.921.723c-.544-2.529-6.024-2.74-6.104.196.414,3.096,7.63,2.136,8.82,4.718,4.971,8.236-10.859,11.693-12.883,3.877Z"/><path class="e" d="M168.799,44.854l2.442.255c-1.153,7.438-11.371,5.059-10.548-1.925-.803-6.668,9.433-9.574,10.548-2.217l-2.442.333c-.864-4.598-5.796-1.643-5.078,1.982-.571,3.78,4.04,5.87,5.078,1.573Z"/><path class="e" d="M174.816,49.484h-2.852v-12.6h2.852v12.6ZM174.816,35.41h-2.852v-2.96h2.852v2.96Z"/><path class="e" d="M185.647,41.699c.123-3.996-5.704-4.035-5.694,0h5.694ZM185.823,45.47l2.578.351c-1.955,6.447-12.182,4.39-11.417-2.598-.513-8.744,12.705-8.565,11.632.313h-8.663c-.745,3.791,4.539,5.685,5.87,1.934Z"/><path class="e" d="M201.049,49.484h-2.852c-.22-1.404.558-8.756-.576-9.747-5.373-3.175-4.05,7.018-4.171,9.747h-2.852v-12.6h2.598v2.921c1.259-3.327,4.318-4.087,6.671-2.139,2.059,1.566.893,9.445,1.182,11.818Z"/><path class="e" d="M210.689,44.854l2.451.255c-1.161,7.437-11.367,5.061-10.548-1.925-.812-6.672,9.415-9.573,10.548-2.217l-2.451.333c-.857-4.598-5.793-1.645-5.078,1.982-.562,3.781,4.041,5.867,5.078,1.573Z"/><path class="e" d="M222.888,41.699c.12-4-5.7-4.03-5.704,0h5.704ZM223.064,45.47l2.579.351c-1.962,6.446-12.18,4.392-11.417-2.598-.524-8.742,12.718-8.566,11.622.313h-8.663c-.733,3.789,4.541,5.685,5.88,1.934Z"/><path class="e" d="M240.146,43.067c-4.251-.05-6.713,1.406-4.971,3.975,2.684,1.935,5.63-1.11,4.971-3.975ZM243.292,49.484h-2.706c-.244-.762-.39-1.612-.44-2.54-6.779,9.407-14.83-6.888,0-5.41,1.091-3.432-5.241-3.948-5.626-.947l-2.432-.362c.478-4.238,8.861-5.101,10.587-1.28.678,2.598-.247,7.832.616,10.539Z"/><path class="e" d="M256.906,49.484h-2.852c-.22-1.404.558-8.756-.576-9.747-5.373-3.174-4.051,7.017-4.171,9.747h-2.852v-12.6h2.598v2.921c1.258-3.327,4.324-4.088,6.671-2.139,2.059,1.566.893,9.445,1.182,11.818Z"/><path class="e" d="M266.78,42.052c.324-2.735-2.996-4.518-4.6-2.149-1.299,1.899-.95,7.98,1.945,7.5,2.648-.039,2.818-3.313,2.655-5.352ZM269.632,49.484h-2.656v-2.54c-2.599,5.995-9.338,1.386-8.526-3.936-.734-4.787,5.581-9.691,8.33-4.415v-6.143h2.853v17.034Z"/><polygon class="e" points="282.837 49.484 279.536 49.484 279.536 35.087 275.004 35.087 275.004 32.45 287.379 32.45 287.379 35.087 282.837 35.087 282.837 49.484"/><path class="e" d="M295.036,41.699c.12-4-5.702-4.03-5.704,0h5.704ZM295.211,45.47l2.578.351c-1.957,6.449-12.183,4.389-11.417-2.598-.522-8.743,12.719-8.566,11.623.313h-8.663c-.733,3.789,4.541,5.685,5.879,1.934Z"/><path class="e" d="M307.274,44.854l2.451.255c-1.151,7.436-11.37,5.063-10.548-1.925-.814-6.674,9.423-9.572,10.548-2.217l-2.451.333c-.857-4.599-5.791-1.642-5.069,1.982-.574,3.785,4.03,5.865,5.069,1.573Z"/><path class="e" d="M322.07,49.484h-2.841c-.23-1.383.574-9.195-.577-10.128-5.58-2.897-3.986,7.258-4.19,10.128h-2.851v-17.034h2.851v6.642c1.529-4.368,8.122-3.336,7.608,1.728,0,0,0,8.663,0,8.663Z"/><path class="e" d="M334.875,49.484h-2.852c-.22-1.404.558-8.756-.576-9.747-5.377-3.174-4.05,7.016-4.171,9.747h-2.852v-12.6h2.598v2.921c1.262-3.328,4.31-4.085,6.671-2.139,2.059,1.566.893,9.445,1.182,11.818Z"/><path class="e" d="M342.259,47.404c3.609.546,4.181-8.554.077-8.449-3.982-.072-3.943,8.452-.077,8.449ZM342.161,49.748c-7.76.116-7.534-13.456.186-13.127,7.821-.175,7.594,13.448-.186,13.127Z"/><rect x="350.013" y="32.45" width="2.852" height="17.034"/><path class="e" d="M360.884,47.404c3.592.544,4.177-8.556.078-8.449-3.985-.076-3.95,8.462-.078,8.449ZM360.786,49.748c-7.76.116-7.54-13.457.186-13.127,7.814-.172,7.596,13.439-.186,13.127Z"/><path class="e" d="M370.552,48.8c-3.561,4.039,9.812,4.421,6.388.626-1.863-.766-4.395.088-6.388-.626ZM373.679,42.589c3.086.302,3.074-4.396.058-4.171-3.053-.248-3.119,4.39-.058,4.171ZM380.154,34.472v2.188c-1.103.029-2.135-.227-2.726,1.016,4.442,3.883-1.771,7.986-5.957,6.27-1.589.665-.8,2.647.84,2.471,2.808-.037,7.909-.559,7.862,3.457.12,7.235-18.761,3.995-10.842-1.835-1.896-1.561-1.414-3.66.84-4.708-4.985-3.723,1.451-8.196,5.89-6.447.389-2.101,2.21-2.577,4.093-2.412Z"/><path class="e" d="M392.03,36.884l-4.912,14.348c-.717,2.491-2.569,3.089-5.069,2.695v-2.256c2.101.348,4.222-.56,3.36-2.96,0,0-4.337-11.828-4.337-11.828h2.989l3.057,8.312,2.636-8.312h2.276Z"/><path class="e" d="M406.973,42.97l-2.481-7.599-2.489,7.599h4.97ZM412.453,49.484h-3.291l-1.358-4.054h-6.563l-1.338,4.054h-2.628l5.665-17.034h3.789l5.724,17.034Z"/><path class="e" d="M415.94,48.8c-3.595,4.029,9.815,4.429,6.388.626-.787-.538-3.416-.241-4.337-.313-.576,0-1.259-.108-2.051-.313ZM419.065,42.589c3.08.302,3.064-4.408.049-4.171-3.05-.236-3.117,4.388-.049,4.171ZM425.541,34.472v2.188c-1.1.029-2.147-.226-2.725,1.016,4.439,3.884-1.771,7.986-5.958,6.27-1.585.661-.801,2.644.831,2.471,2.809-.038,7.92-.558,7.862,3.457.128,7.245-18.761,3.984-10.831-1.835-1.911-1.562-1.422-3.658.84-4.708-5.002-3.712,1.444-8.197,5.879-6.447.399-2.105,2.216-2.577,4.102-2.412Z"/><path class="e" d="M434.682,41.699c.121-4-5.7-4.03-5.704,0h5.704ZM434.858,45.47l2.569.351c-1.939,6.453-12.183,4.385-11.408-2.598-.516-8.742,12.697-8.566,11.623.313h-8.663c-.735,3.792,4.533,5.684,5.88,1.934Z"/><path class="e" d="M450.085,49.484h-2.852c-.217-1.404.553-8.752-.576-9.747-5.384-3.176-4.061,7.01-4.181,9.747h-2.842v-12.6h2.598v2.921c1.259-3.335,4.312-4.082,6.671-2.139,2.053,1.569.897,9.445,1.182,11.818Z"/><path class="e" d="M459.714,44.854l2.452.255c-1.154,7.439-11.371,5.059-10.549-1.925-.805-6.675,9.421-9.572,10.549-2.217l-2.452.333c-.854-4.602-5.788-1.637-5.068,1.982-.575,3.776,4.048,5.873,5.068,1.573Z"/><path class="e" d="M472.334,36.884l-4.913,14.348c-.731,2.497-2.58,3.088-5.079,2.695v-2.256c2.061.363,4.257-.593,3.36-2.96,0,0-4.337-11.828-4.337-11.828h2.988l3.067,8.312,2.637-8.312h2.276Z"/><path class="c" d="M53.591,55.187C96.992,24.459,70.824-13.42,26.726,16.295c-43.384,30.745-17.22,68.627,26.865,38.892ZM2.96,61.465C-15.693,34.974,59.201-16.772,77.375,10.026,96.004,36.497,21.138,88.275,2.96,61.465Z"/><path class="d" d="M21.945,21.146v16.958c.074,4.324-4.578,4.955-7.925,4.594v7.792c19.583,1.832,15.383-16.543,15.717-29.344h-7.792Z"/><path class="d" d="M64.081,21.146c-3.647,0-11.077,0-14.742,0-6.362.072-19.08-1.82-19.056,7.878-1,9.572,24.685,15.235,0,14.719v6.747h10.335c8.461.66,10.454-11.549,4.336-15.086-13.074-8.854-5.854-7.144,4.385-7.3v22.386h7.792v-22.386h6.95v-6.958Z"/><path d="M94.372,20.976c-.118.136.055,2.816-.36,2.697,0,0-8.283,0-8.283,0-.985-.696,1.594-.309,1.241-1.321-.187-.482.457-7.691-.417-7.669-.265-.102-1.619-.312-.819-.71.208.17,8.238-.339,8.19.208,0,0,0,2.076,0,2.076-.581,1.091-.957-2.459-3.224-1.843-.186.089-1.442-.203-1.405.208,0,0,0,3.589,0,3.589.258.55,1.932.043,1.982-.189.403-.262.296-1.193.743-1.363.502-.158.133,3.645.24,3.808-.498.895-.671-1.088-.983-1.195-.141-.326-1.191-.433-1.774-.383-.434-.123-.116,2.989-.208,3.138-.456,1.752,2.633,1.307,3.374.867.682-.332,1.109-2.864,1.704-1.916Z"/><path d="M106.73,23.673c-.183-.108-3.56.237-3.448-.21.21-.408.857-.167.71-.927-.191-.846.571-4.728-.793-4.7-1.945-.1-.932,3.6-1.17,4.63-.278.713,1.247.785.506,1.207-.157-.112-3.374.246-3.234-.215.214-.39.839-.175.696-.921,0,0,0-3.323,0-3.323.176-2.033-1.969-1.559-1.963-.159.118.478-.267,3.786.236,4.05.282.084.761.417.256.568-.127-.107-3.594.235-3.443-.208.199-.421,1.046-.17.933-.929-.103-.589.322-4.498-.362-4.814-.228-.114-1.08-.352-.456-.611.19.116,2.905-.241,2.822.208.037.072-.096.703.124.535.508-1.111,3.26-1.249,3.855.155.619-1.415,4.429-1.616,4.024,1.147,0,0,0,3.323,0,3.323-.266.751,1.477.711.706,1.193Z"/><path d="M114.526,20.45c.094,2.593-2.626,4.155-4.46,3.022-.248-.144-.041,1.898-.105,1.939-.003.746.639.718,1.228.867,1.194.816-4.124.281-4.138.425-.813-.563,1.215-.319.906-1.193,0,0,0-7.063,0-7.063.094-.793-.797-.694-1.086-1.123-.114-.447,2.74-.113,2.896-.212.255-.003.207.32.208.487,1.794-1.374,4.694-.415,4.552,2.85ZM112.313,20.415c.366-2.1-1.751-3.885-2.353-1.573.085.705-.229,3.506.262,4.076,1.238,1.27,2.137-.247,2.091-2.503Z"/><path d="M122.311,20.35c.386,4.419-7.056,4.852-6.932.042-.286-4.529,7.232-4.547,6.932-.042ZM120.07,20.336c.314-4.089-2.751-3.926-2.436-.028-.324,4.12,2.73,4.218,2.436.028Z"/><path d="M149.522,23.673c-.041-.127-4.718.356-3.556-.413,1.475.207.521-4.118.777-4.785.279-.876-1.786-.873-.958-1.363.163.115,3.083-.241,2.976.208.275.684-.745,6.129.795,5.929.252.035.223.43-.034.424Z"/><path d="M202.509,23.673c-.155-.074-5.026.298-2.959-.512.45-.228.106-3.514.209-3.948.163-2.077-2.045-1.531-2.032-.121.104.47-.253,3.754.237,4.012.181.152.511.074.529.352.144.454-3.361.118-3.508.217-.765-.507.993-.366.724-1.136,0,0,0-4.061,0-4.061.253-.828-1.615-.941-.818-1.363,0,0,2.628,0,2.628,0,.326-.012.176.567.208.747,4.065-2.889,4.323,1.192,4.078,4.622-.28.756,1.486.697.704,1.193Z"/><path d="M157.941,23.673c-.155-.074-5.026.298-2.959-.512.45-.228.106-3.514.209-3.948.163-2.077-2.045-1.531-2.032-.121.104.47-.253,3.754.237,4.012.181.152.511.074.529.352.144.454-3.361.118-3.508.217-.765-.507.993-.366.724-1.136,0,0,0-4.061,0-4.061.253-.828-1.615-.941-.818-1.363,0,0,2.628,0,2.628,0,.326-.012.176.567.208.747,4.065-2.889,4.323,1.192,4.078,4.622-.28.756,1.486.697.704,1.193Z"/><path d="M176.265,20.847c0,1.733-1.406,3.039-3.577,3.039-1.555.129-2.222-.974-3.352-.1-.605.127-.239-3.079-.372-3.315-.003-.144.113-.263.257-.263.878,2.007,4.093,5.051,4.971,1.477-.283-2.62-5.523-1.706-5.011-5.084-.228-2.332,3.135-3.547,5.181-2.488.405.22.722-.007,1.056-.139.617-.108.225,2.738.356,2.991.01.285-.42.336-.479.059-.03-2.305-3.714-4.252-4.11-1.232.291,2.78,5.465,1.461,5.081,5.056Z"/><path d="M182.978,21.796c.11,1.097-1.482,2.104-2.579,2.09-4.416.15-4.342-7.052.097-6.959,4.201-.186,1.589,4.91.195,1.676.88-2.417-1.717-1.335-1.363,1.647-.074,3.227,2.169,3.289,3.65,1.545Z"/><path d="M209.13,21.796c.11,1.097-1.482,2.104-2.579,2.09-4.416.15-4.342-7.052.097-6.959,4.201-.186,1.589,4.91.195,1.676.88-2.417-1.717-1.335-1.363,1.647-.074,3.227,2.169,3.289,3.65,1.545Z"/><path d="M130.502,17.33c.104.412,1.194.281,1.025.833,0,0-1.039,2.867-1.039,2.867-.67.513-.949-2.194-1.103-2.123-.144-.561-.675-1.371.234-1.386.106-.01.186-.098.186-.204.146-.431-3.27-.113-3.404-.206-.254-.004-.29.383-.039.425.611.031.755.894.957,1.39.123.218-.536,2.778-.986,2.125-.267-1.361-1.75-3.101-.725-3.521.232-.039.206-.423-.032-.419-.137.108-3.587-.24-3.44.214.151.393.841.241.96.794,1.59,3.338,2.152,9.877,4.476,1.849.687.55.871,3.18,1.601,3.788.153-.053.785.118.835-.137,0,0,1.901-5.247,1.901-5.247h0c.079-.774,1.712-.76.947-1.262-.184.092-2.432-.228-2.354.218Z"/><path d="M163.474,22.169c-.69-.2-3.278.375-2.857-.815,1.375-.466,3.961-.167,3.901-2.197.21-.919-1.449-1.978-.387-2.18.165.256.476.408.815.34.999-.195.652-1.768-.332-1.521-.657-.061-.845,1.136-1.438,1.369-2.846-1.246-6.604,1.923-2.873,3.861-1.672.381-1.351,1.79-.53,2.585-.897.105-1.407.657-1.407,1.345-.21,2.753,7.917,2.013,7.057-.81,0-1.349-1.085-1.934-1.948-1.977ZM161.623,17.27c1.257-.056,1.244,3.52.014,3.512-1.076.062-1.262-3.587-.014-3.512ZM163.613,24.672c-.241,3.692-5.676.216-2.228-.961,1.047.088,2.137-.259,2.228.961"/><path d="M218.175,21.355c-1.926-.133-1.54,2.978.284,2.398.331,1.003-1.107,1.602-1.521,2.227,2.176.19,3.977-4.311,1.236-4.625Z"/><path d="M148.806,14.63c.023,1.585-2.466,1.585-2.443,0-.023-1.584,2.466-1.584,2.443,0Z"/><path d="M187.347,23.673c-.041-.127-4.718.356-3.556-.413,1.475.207.521-4.118.777-4.785.279-.876-1.786-.873-.958-1.363.163.115,3.083-.241,2.976.208.275.684-.745,6.129.795,5.929.252.035.223.43-.034.424Z"/><path d="M186.631,14.63c.023,1.585-2.466,1.585-2.443,0-.023-1.584,2.466-1.584,2.443,0Z"/><path d="M138.967,21.788c-.1-.065-.204.005-.259.1h0c-1.135,2.271-4.623.824-3.473-1.737.227-.17,4.102.426,3.726-.398.314-4.087-6.609-3.4-6.11.611-.654,3.663,5.638,4.895,6.116,1.424ZM135.997,17.297c.621-.171,1.18,1.689.599,2.386,0,0-1.364,0-1.364,0-.66-.97.314-2.62.765-2.386Z"/><path d="M194.157,21.788c-.1-.065-.204.005-.259.1h0c-1.135,2.271-4.623.824-3.473-1.737.227-.17,4.102.426,3.726-.398.314-4.087-6.609-3.4-6.11.611-.654,3.663,5.638,4.895,6.116,1.424ZM191.186,17.297c.621-.171,1.18,1.689.599,2.386,0,0-1.364,0-1.364,0-.66-.97.314-2.62.765-2.386Z"/><path d="M215.869,21.788c-.1-.065-.204.005-.259.1h0c-1.135,2.271-4.623.824-3.473-1.737.227-.17,4.102.426,3.726-.398.314-4.087-6.609-3.4-6.11.611-.654,3.663,5.638,4.895,6.116,1.424ZM212.898,17.297c.621-.171,1.18,1.689.599,2.386,0,0-1.364,0-1.364,0-.66-.97.314-2.62.765-2.386Z"/><path d="M145.421,18.22c-.151-2.233-2.442-.923-3.034-.408-.028-.174.108-.713-.208-.699-.086.101-3.742-.315-2.689.419,1.599-.011.628,4.171.879,5.005.124.756-.736.508-.933.928-.209.444,6.768.333,3.327-.36-.744-.144-.234-3.724-.376-4.206,0-.501.351-.921.827-1.027-.031,1.454,1.899,2.144,2.207.348Z"/><path d="M251.035,20.45c.192,2.676-2.95,4.184-4.565,2.954.102.484-.308,2.496.39,2.66.186.157.948.064,1.016.425.282.365-4.791.344-4.524.007.266-.461,1.241-.129,1.113-.986,0,0,0-7.063,0-7.063.093-.792-.797-.694-1.086-1.123-.113-.448,2.739-.112,2.896-.212.306-.008.186.475.208.652,1.462-1.757,4.841-.475,4.552,2.686ZM248.822,20.464c.364-2.097-1.73-3.965-2.353-1.621.086.705-.23,3.555.262,4.125,1.238,1.27,2.137-.247,2.091-2.503Z"/><path d="M236.958,23.673c-.155-.074-5.026.298-2.959-.512.45-.228.106-3.514.209-3.948.163-2.077-2.045-1.531-2.032-.121.104.47-.253,3.754.237,4.012.181.152.511.074.529.352.144.454-3.361.118-3.508.217-.765-.507.993-.366.724-1.136,0,0,0-4.061,0-4.061.253-.828-1.615-.941-.818-1.363,0,0,2.628,0,2.628,0,.326-.012.176.567.208.747,4.065-2.889,4.323,1.192,4.078,4.622-.28.756,1.486.697.704,1.193Z"/><path d="M243.004,21.685c.111,2.017-2.64,2.678-4.152,1.853-.338-.203-.557.145-.835.22-.402.203-.468-2.609-.106-2.457.61.726.746,2.235,2.324,2.172.71,0,1.044-.383,1.044-1.05,0-.739-.64-.98-1.587-1.307-2.457-.49-2.493-4.294.64-4.189,2.514.585,2.262-1.042,2.343,1.999.014.256-.369.315-.434.069-.194-1.533-2.469-2.534-2.634-.747.077,1.539,3.751,1.247,3.397,3.437Z"/><path d="M334.121,21.685c.111,2.017-2.64,2.678-4.152,1.853-.338-.203-.557.145-.835.22-.402.203-.468-2.609-.106-2.457.61.726.746,2.235,2.324,2.172.71,0,1.044-.383,1.044-1.05,0-.739-.64-.98-1.587-1.307-2.457-.49-2.493-4.294.64-4.189,2.514.585,2.262-1.042,2.343,1.999.014.256-.369.315-.434.069-.194-1.533-2.469-2.534-2.634-.747.077,1.539,3.751,1.247,3.397,3.437Z"/><path d="M293.699,16.544c-.813-1.014-1.32-2.476-2.978-2.13-.189.082-1.287-.193-1.257.208,0,0,0,3.645,0,3.645-.013.335.611.172.792.208,1.626.099,1.234-1.07,1.933-1.776.501-.161.131,3.705.24,3.866.006.279-.423.325-.473.048-.303-1.061-.362-1.679-1.736-1.669-.181.032-.768-.119-.757.208.152.563-.397,3.628.417,3.853.147.142.973.05,1.016.431.176.542-4.851.099-5,.237-.282.004-.316-.432-.032-.466.631-.081,1.324-.13,1.274-.854,0,0,0-6.973,0-6.973.36-.959-2.211-.733-1.237-1.406,0,0,7.849,0,7.849,0,.341-.18.351,2.787-.053,2.57Z"/><path d="M301.896,23.463c.113.441-2.672.114-2.826.21-.311.009-.183-.496-.208-.674-1.103.979-4.182,1.575-3.995-1.457-.101-.577.31-3.495-.362-3.82-2.398-.924,1.891-.535,2.186-.611.469-.174.094,4.509.208,4.63-.137,1.857,1.977,1.411,1.949.076-.112-.545.289-3.754-.306-4.08-2.717-.942,1.802-.539,2.102-.625.502-.165.072,5.143.208,5.269-.084.786.779.665,1.044,1.082Z"/><path d="M315.202,23.463c.113.441-2.672.114-2.826.21-.311.009-.183-.496-.208-.674-1.103.979-4.182,1.575-3.995-1.457-.101-.577.31-3.495-.362-3.82-2.398-.924,1.891-.535,2.186-.611.469-.174.094,4.509.208,4.63-.137,1.857,1.977,1.411,1.949.076-.112-.545.289-3.754-.306-4.08-2.717-.942,1.802-.539,2.102-.625.502-.165.072,5.143.208,5.269-.084.786.779.665,1.044,1.082Z"/><path d="M306.567,21.685c1.088,2.483-4.147,3.145-3.771.142,0,0,0-4.038,0-4.038.014-.342-.652-.168-.835-.208-1.061-.482,1.988-.764,1.967-2.228,1.227-.759.81.915.872,1.551-.03.536,2.655-.189,1.607.677-.192.081-1.647-.202-1.607.208.262.877-.712,5.043.807,5.089.777.081.542-.885.959-1.193Z"/><path d="M280.223,22.169c-.69-.2-3.278.375-2.857-.815,1.375-.466,3.961-.167,3.901-2.197.21-.919-1.449-1.978-.387-2.18.165.256.476.408.815.34.999-.195.652-1.768-.332-1.521-.657-.061-.845,1.136-1.438,1.369-2.846-1.246-6.604,1.923-2.873,3.861-1.672.381-1.351,1.79-.53,2.585-.897.105-1.407.657-1.407,1.345-.21,2.753,7.917,2.013,7.057-.81,0-1.349-1.085-1.934-1.948-1.977ZM278.372,17.27c1.257-.056,1.244,3.52.014,3.512-1.076.062-1.262-3.587-.014-3.512ZM280.362,24.672c-.241,3.692-5.676.216-2.228-.961,1.047.088,2.137-.259,2.228.961"/><path d="M228.528,23.673c-.152-.148-5.065.304-4.899-.229.258-.544,1.52-.072,1.406-.95,0,0,0-7.115,0-7.115.128-.912-1.121-.624-1.406-1.168-.171-.546,4.749-.1,4.901-.238.955.676-1.521.36-1.171,1.335.179.385-.448,7.842.417,7.698.192.064,1.557.285.752.666Z"/><path d="M255.498,23.673c-.041-.127-4.718.356-3.556-.413,1.475.207.521-4.118.777-4.785.279-.876-1.786-.873-.958-1.363.163.115,3.083-.241,2.976.208.275.684-.745,6.129.795,5.929.252.035.223.43-.034.424Z"/><path d="M254.782,14.63c.023,1.585-2.466,1.585-2.443,0-.023-1.584,2.466-1.584,2.443,0Z"/><path d="M266.271,23.673c-.041-.127-4.718.356-3.556-.413,1.475.207.521-4.118.777-4.785.279-.876-1.786-.873-.958-1.363.163.115,3.083-.241,2.976.208.275.684-.745,6.129.795,5.929.252.035.223.43-.034.424Z"/><path d="M265.555,14.63c.023,1.585-2.466,1.585-2.443,0-.023-1.584,2.466-1.584,2.443,0Z"/><path d="M274.69,23.673c-.155-.074-5.026.298-2.959-.512.45-.228.106-3.514.209-3.948.163-2.077-2.045-1.531-2.032-.121.104.47-.253,3.754.237,4.012.181.152.511.074.529.352.144.454-3.361.118-3.508.217-.765-.507.993-.366.724-1.136,0,0,0-4.061,0-4.061.253-.828-1.615-.941-.818-1.363,0,0,2.628,0,2.628,0,.326-.012.176.567.208.747,4.065-2.889,4.323,1.192,4.078,4.622-.28.756,1.486.697.704,1.193Z"/><path d="M328.043,21.788c-.1-.065-.204.005-.259.1h0c-1.135,2.271-4.623.824-3.473-1.737.227-.17,4.102.426,3.726-.398.314-4.087-6.609-3.4-6.11.611-.654,3.663,5.638,4.895,6.116,1.424ZM325.073,17.297c.621-.171,1.18,1.689.599,2.386,0,0-1.364,0-1.364,0-.66-.97.314-2.62.765-2.386Z"/><path d="M262.17,18.22c-.151-2.233-2.442-.923-3.034-.408-.028-.174.108-.713-.208-.699-.086.101-3.742-.315-2.689.419,1.599-.011.628,4.171.879,5.005.124.756-.736.508-.933.928-.209.444,6.768.333,3.327-.36-.744-.144-.234-3.724-.376-4.206,0-.501.351-.921.827-1.027-.031,1.454,1.899,2.144,2.207.348Z"/><path d="M321.633,18.22c-.151-2.233-2.442-.923-3.034-.408-.028-.174.108-.713-.208-.699-.086.101-3.742-.315-2.689.419,1.599-.011.628,4.171.879,5.005.124.756-.736.508-.933.928-.209.444,6.768.333,3.327-.36-.744-.144-.234-3.724-.376-4.206,0-.501.351-.921.827-1.027-.031,1.454,1.899,2.144,2.207.348Z"/><path class="b" d="M46.695,11.411c7.395.107,7.401-11.522,0-11.411-7.391-.11-7.385,11.518,0,11.411Z"/></svg>